RUNTIME.......: 1h:38m:36s
SIZE..........: 7.8 GB
VIDEO CODEC...: x264, L4.1
FRAMERATE.....: 23,976 fps
BITRATE.......: Variable ~ 10500 Kbps
RESOLUTION....: 1920x800
AUDIO.........: Dolby Digital Audio English 640 kbps 5.1
SUBTITLES.....: English, German
SOURCE........: Basic 2003 1080p Blu-ray Ger AVC DTS-HD MA 6.1
CHAPTERS......: Yes
ENCODER.......: Ethernal
RELEASE DATE..: 2011-01-31

Tom Hardy, an ex-Army Ranger turned DEA agent, is drawn into an ever-widening mystery surrounding the disappearance of the feared and often hated Sgt. Nathan West, as well as several of his elite Special Forces trainees on what appears, at first, to have been a routine training exercise during a hurricane in the jungles of Panama. Only two survivors are found, Dunbar, and a badly wounded Kendall, the son of a high-profile Joint Chiefs of Staff official. Neither is willing to cooperate with Capt. Julia Osborne's investigation. So base commander Col. Bill Styles calls in ex-Ranger Hardy, an old friend and a persuasive interrogator. Osborne disapproves of Hardy who is on leave from the D.E.A. after having come under suspicion of accepting bribes from local drug traffickers. She is also uneasy when she learns that Hardy once trained under West and hates him almost as passionately as his current recruits...


Format : Matroska 
File size : 7.83 GiB 
Duration : 1h 38mn 
Overall bit rate : 11.4 Mbps 
Encoded date : UTC 2011-01-31 18:07:00 
Writing application : mkvmerge v4.4.0 ('Die Wiederkehr') built on Oct 31 2010 21:52:48 
Writing library : libebml v1.0.0 + libmatroska v1.0.0 

Video 
ID : 1 
Format : AVC 
Format/Info : Advanced Video Codec 
Format profile : High@L4.1 
Format settings, CABAC : Yes 
Format settings, ReFrames : 5 frames 
Muxing mode : Container profile=Unknown@4.1 
Codec ID : V_MPEG4/ISO/AVC 
Duration : 1h 38mn 
Bit rate : 10.5 Mbps 
Width : 1 920 pixels 
Height : 800 pixels 
Display aspect ratio : 2.40:1 
Frame rate : 23.976 fps 
Color space : YUV 
Chroma subsampling : 4:2:0 
Bit depth : 8 bits 
Scan type : Progressive 
Bits/(Pixel*Frame) : 0.286 
Stream size : 7.23 GiB (92%) 
Writing library : x264 core 112 r1867 22bfd31 
Encoding settings : cabac=1 / ref=5 / deblock=1:-2:-2 / analyse=0x3:0x133 / me=umh / subme=10 / psy=1 / psy_rd=1.00:0.25 / mixed_ref=1 / me_range=24 / chroma_me=1 / trellis=2 / 8x8dct=1 / cqm=0 / deadzone=6,6 / fast_pskip=1 / chroma_qp_offset=-4 / threads=12 / sliced_threads=0 / nr=0 / decimate=0 / interlaced=0 / constrained_intra=0 / bframes=8 / b_pyramid=2 / b_adapt=2 / b_bias=0 / direct=3 / weightb=1 / open_gop=0 / weightp=2 / keyint=250 / keyint_min=23 / scenecut=40 / intra_refresh=0 / rc_lookahead=60 / rc=crf / mbtree=1 / crf=18.0 / qcomp=0.80 / qpmin=10 / qpmax=51 / qpstep=4 / ip_ratio=1.10 / aq=1:0.50 
Language : English 

Audio 
ID : 2 
Format : AC-3 
Format/Info : Audio Coding 3 
Mode extension : CM (complete main) 
Codec ID : A_AC3 
Duration : 1h 38mn 
Bit rate mode : Constant 
Bit rate : 640 Kbps 
Channel(s) : 6 channels 
Channel positions : Front: L C R, Side: L R, LFE 
Sampling rate : 48.0 KHz 
Bit depth : 16 bits 
Stream size : 449 MiB (6%) 

Text #1 
ID : 3 
Format : UTF-8 
Codec ID : S_TEXT/UTF8 
Codec ID/Info : UTF-8 Plain Text 
Language : English 

Text #2 
ID : 4 
Format : UTF-8 
Codec ID : S_TEXT/UTF8 
Codec ID/Info : UTF-8 Plain Text 
Language : German 

Menu & 12 Chapters

 
http://www.imagebam.com/image/a0121e118330811
 
http://www.imagebam.com/image/6556fb118330821
 
http://www.imagebam.com/image/09384b118330830
 
http://www.imagebam.com/image/9603a0118330840
 
http://www.imagebam.com/image/182ae3118330854